inDegrees=yes
name=ik_S48_A04_T01
DataType=double
version=3
OpenSimVersion=4.3-2021-08-27-4bc7ad9
endheader
time	pelvis_tilt	pelvis_list	pelvis_rotation	pelvis_tx	pelvis_ty	pelvis_tz	hip_flexion_r	hip_adduction_r	hip_rotation_r	knee_angle_r	knee_angle_r_beta	ankle_angle_r	subtalar_angle_r	mtp_angle_r	hip_flexion_l	hip_adduction_l	hip_rotation_l	knee_angle_l	knee_angle_l_beta	ankle_angle_l	subtalar_angle_l	mtp_angle_l	lumbar_extension	lumbar_bending	lumbar_rotation	arm_flex_r	arm_add_r	arm_rot_r	elbow_flex_r	pro_sup_r	wrist_flex_r	wrist_dev_r	arm_flex_l	arm_add_l	arm_rot_l	elbow_flex_l	pro_sup_l	wrist_flex_l	wrist_dev_l
21.53999999999963	10.86856986977835	2.332750889013964	38.24943339891807	0	0.9399999999999999	0	44.92199236025257	-17.10992886353666	-11.94266032419131	79.80448391290847	1.3928510021351	0	0	0	52.50955743167589	-8.803557522133147	-7.733213547554204	80.68350081506824	1.408192741258469	0	0	0	0	0	0	30.79183736011933	-30.79183736011933	4.358540036737922	76.3345301542526	85.64146020785006	0	0	30.79183736011933	-30.79183736011933	4.358540036737922	76.3345301542526	85.64146020773038	0	0
21.55999999999963	11.34758433243296	2.869084361204822	38.36990810734502	0	0.9399999999999999	0	44.26286321777892	-17.23065519789018	-11.95898916633912	79.96455268587877	1.39564472925306	0	0	0	51.8846469061514	-8.747733707563103	-7.735189049408165	80.8269694827037	1.410696741882157	0	0	0	0	0	0	30.79288641334798	-30.79288641334797	4.358633133866626	76.33579779912573	85.64136711072612	0	0	30.79288641334798	-30.79288641334797	4.358633133866626	76.33579779912573	85.64136711060644	0	0
21.57999999999963	11.99929958848644	3.407288122114554	38.35011203172163	0	0.9399999999999999	0	43.51101279249593	-17.26364550653198	-12.04502402271427	80.11953341692372	1.398349653286941	0	0	0	51.10042799667465	-8.799611194782724	-7.701098231081658	80.91642485129009	1.412258032597575	0	0	0	0	0	0	30.79396784991239	-30.79396784991238	4.35872846758791	76.33709568264804	85.64127177700979	0	0	30.79396784991239	-30.79396784991238	4.35872846758791	76.33709568264804	85.64127177689012	0	0
21.59999999999963	12.28813639173122	3.533544469726023	38.34364501735261	0	0.9399999999999999	0	43.34625831170311	-17.19870803162733	-12.34447544681989	80.24088363748874	1.400467614183822	0	0	0	50.79617268268739	-8.862229163577526	-7.61489152744103	80.91237154885526	1.412187289124508	0	0	0	0	0	0	30.79498101236293	-30.79498101236292	4.358818795174892	76.33832575253356	85.64118144942738	0	0	30.79498101236293	-30.79498101236292	4.358818795174892	76.33832575253356	85.64118144930781	0	0
21.61999999999963	12.44590676188576	3.717104452175841	38.31748523730199	0	0.9399999999999999	0	43.21658058964512	-17.21329826014923	-12.4338017574634	80.33715926598501	1.402147940890509	0	0	0	50.58679092424139	-8.865498297321359	-7.574865695652433	80.91580687138664	1.412247246813549	0	0	0	0	0	0	30.79599131915307	-30.79599131915306	4.358909088151266	76.33955542246267	85.64109115645562	0	0	30.79599131915307	-30.79599131915306	4.358909088151266	76.33955542246267	85.64109115633605	0	0
21.63999999999963	12.92506961193853	4.28803672248582	38.22071301585975	0	0.9399999999999999	0	42.63201806306171	-17.2651656304195	-12.34351102580283	80.454410079185	1.40419435363149	0	0	0	49.85229246821175	-8.791525220682363	-7.700105139018927	80.97101207277562	1.413210759342013	0	0	0	0	0	0	30.79697218838972	-30.79697218838972	4.358995458204379	76.3407312342859	85.6410047864069	0	0	30.79697218838972	-30.79697218838972	4.358995458204379	76.3407312342859	85.64100478628734	0	0
21.65999999999963	13.31328177072026	4.766952547361461	38.11209480692216	0	0.9399999999999999	0	42.16302844010342	-17.26476410455002	-12.2618391345463	80.52943612562973	1.405503805166705	0	0	0	49.29839514644473	-8.720889497912029	-7.636148702450255	81.01433443673389	1.413966877232832	0	0	0	0	0	0	30.79805007759826	-30.79805007759825	4.359091421158629	76.34203799352768	85.64090882345754	0	0	30.79805007759826	-30.79805007759825	4.359091421158629	76.34203799352768	85.64090882333799	0	0
21.67999999999963	13.47590761773695	4.945784476626504	38.0584721684879	0	0.9399999999999999	0	41.98447711937994	-17.26108406984682	-12.28329899788116	80.55831940618144	1.406007913511109	0	0	0	49.07376263652233	-8.676399704248274	-7.534146717449913	81.02238518541084	1.414107389304496	0	0	0	0	0	0	30.79910215727641	-30.7991021572764	4.359185613244453	76.34332081169283	85.64081463137654	0	0	30.79910215727641	-30.7991021572764	4.359185613244453	76.34332081169283	85.640814631257	0	0
21.69999999999963	13.49186783861594	4.963877326824836	37.97783556048598	0	0.9399999999999999	0	42.0028158721187	-17.20250445110272	-12.27291307514133	80.55901410510606	1.406020038294654	0	0	0	49.07892024631499	-8.635714413568605	-7.449076410687864	81.02299618576033	1.414118053272325	0	0	0	0	0	0	30.79931477474411	-30.79931477474411	4.359204378861385	76.34357629247812	85.64079586576058	0	0	30.79931477474411	-30.79931477474411	4.359204378861385	76.34357629247812	85.64079586564104	0	0
21.71999999999963	13.6261254099814	4.925714310130904	37.92272230987405	0	0.9399999999999999	0	41.88410573168665	-17.04266561283572	-12.46515001903665	80.55603986272622	1.405968127972373	0	0	0	49.03261520010859	-8.758191742853064	-7.308230599416283	81.05786905346045	1.414726699633304	0	0	0	0	0	0	30.80045706245911	-30.8004570624591	4.359306647432343	76.34496910141046	85.64069359719484	0	0	30.80045706245911	-30.8004570624591	4.359306647432343	76.34496910141046	85.64069359707533	0	0
21.73999999999963	13.81501337898001	5.006629984741743	37.86360488715509	0	0.9399999999999999	0	41.62939808403127	-16.95675018229701	-12.58402839923718	80.52932159050852	1.40550180615173	0	0	0	48.87782704121395	-8.854808117761653	-7.209474254069036	81.12936076270226	1.415974465347452	0	0	0	0	0	0	30.80167358042255	-30.80167358042254	4.35941526596	76.34644829058183	85.64058497867273	0	0	30.80167358042255	-30.80167358042254	4.35941526596	76.34644829058183	85.64058497855322	0	0
21.75999999999962	13.86577479279511	5.028923421858241	37.84914519837081	0	0.9399999999999999	0	41.52274073037699	-16.95495927271029	-12.66174578110296	80.46683772429289	1.404411256956892	0	0	0	48.84532858799435	-8.855400083810121	-7.173743335912242	81.14941389381593	1.41632445851072	0	0	0	0	0	0	30.81965137460033	-30.81965137460033	4.360928397214852	76.36698372405557	85.63907184749421	0	0	30.81965137460033	-30.81965137460033	4.360928397214852	76.36698372405557	85.63907184737496	0	0
21.77999999999962	14.03001915341151	5.103981749290621	37.80030361789695	0	0.9399999999999999	0	41.35667754064107	-16.85382275746417	-12.68521675312546	80.44993457418073	1.404116241333476	0	0	0	48.70417095328002	-8.897007697967956	-7.183861017994756	81.20460561579623	1.417287735779122	0	0	0	0	0	0	30.83569402417952	-30.83569402417952	4.362257430399751	76.38500691934959	85.63774281437614	0	0	30.83569402417952	-30.83569402417952	4.362257430399751	76.38500691934959	85.63774281425714	0	0
21.79999999999962	14.27378299272652	5.230022561885909	37.70012461199025	0	0.9399999999999999	0	41.0549295282858	-16.88041962987957	-12.79519529439321	80.46492735281534	1.404377914684673	0	0	0	48.47178374157622	-8.978632686177434	-7.26394469991314	81.31945158393275	1.419292176055744	0	0	0	0	0	0	30.83687653422242	-30.83687653422241	4.362362714783856	76.38644054125498	85.63763752999742	0	0	30.83687653422242	-30.83687653422241	4.362362714783856	76.38644054125498	85.63763752987846	0	0
21.81999999999962	14.52049824115249	5.33240259685711	37.62808037749924	0	0.9399999999999999	0	40.78702841910943	-16.86734611948917	-12.87081177412987	80.49210109293405	1.404852185919825	0	0	0	48.2575875916045	-9.077868024484657	-7.324092204179088	81.39619784988756	1.420631651085267	0	0	0	0	0	0	30.83791520912046	-30.83791520912046	4.362454238235891	76.38768646861737	85.63754600655005	0	0	30.83791520912046	-30.83791520912046	4.362454238235891	76.38768646861737	85.63754600643114	0	0
21.83999999999962	14.58996912996863	5.347203289520676	37.6484471606426	0	0.9399999999999999	0	40.68639084557103	-16.91277484630859	-12.97198888483471	80.50489849462478	1.405075542715029	0	0	0	48.22834393291629	-9.112124470817955	-7.368186031890012	81.4806541980241	1.42210569243446	0	0	0	0	0	0	30.84909530004121	-30.8490953000412	4.363387740072152	76.40035220392775	85.63661250476085	0	0	30.84909530004121	-30.8490953000412	4.363387740072152	76.40035220392775	85.63661250464212	0	0
21.85999999999962	14.63556339274932	5.341818210124623	37.65702272410714	0	0.9399999999999999	0	40.6342497293972	-16.90903731941504	-13.01454640328455	80.51420551313043	1.405237980831497	0	0	0	48.19892972367889	-9.108175113233063	-7.364119730200132	81.54323016591528	1.423197849106784	0	0	0	0	0	0	30.86138392224631	-30.8613839222463	4.364445909023479	76.41473366661978	85.63555433586318	0	0	30.86138392224631	-30.8613839222463	4.364445909023479	76.41473366661978	85.63555433574463	0	0
21.87999999999962	14.69841819029747	5.345753340660631	37.66629665470516	0	0.9399999999999999	0	40.57234395859857	-16.95675059303813	-13.03794314080442	80.54711535188255	1.405812365874022	0	0	0	48.18517868397974	-9.200428177887305	-7.364980323101363	81.6151254712308	1.424452658901266	0	0	0	0	0	0	30.87471069637174	-30.87471069637174	4.365561699696085	76.42987481220719	85.63443854524681	0	0	30.87471069637174	-30.87471069637174	4.365561699696085	76.42987481220719	85.63443854512848	0	0
